HIERARCHY
ROOT Hips
{
	OFFSET 0.000000 8.830580 0.000000
	CHANNELS 6 Xposition Yposition Zposition Zrotation Yrotation Xrotation 
	JOINT Spine
	{
		OFFSET 0.000000 0.010000 0.000000
		CHANNELS 3 Zrotation Yrotation Xrotation
		JOINT Spine1
		{
			OFFSET 0.000000 2.459130 0.000000
			CHANNELS 3 Zrotation Yrotation Xrotation
			JOINT Neck
			{
				OFFSET 0.000000 2.484630 0.000000
				CHANNELS 3 Zrotation Yrotation Xrotation
				JOINT Head_virtual
				{
					OFFSET 0.000000 0.000000 0.000000
					CHANNELS 3 Zrotation Yrotation Xrotation
					JOINT Head
					{
						OFFSET 0.000000 0.927525 0.000000
						CHANNELS 3 Zrotation Yrotation Xrotation
						End Site
						{
							OFFSET 0.000000 0.000000 0.000000
						}
					}
				}
				JOINT LeftUpArm_virtual
				{
					OFFSET 0.000000 0.000000 0.000000
					CHANNELS 3 Zrotation Yrotation Xrotation
					JOINT LeftUpArm
					{
						OFFSET 1.248820 0.000000 0.000000
						CHANNELS 3 Zrotation Yrotation Xrotation
						JOINT LeftForeArm
						{
							OFFSET 2.597580 0.000000 0.000000
							CHANNELS 3 Zrotation Yrotation Xrotation
							JOINT LeftHand
							{
								OFFSET 2.455420 0.000000 0.000000
								CHANNELS 3 Zrotation Yrotation Xrotation
								End Site
								{
									OFFSET 0.000000 0.000000 0.000000
								}
							}
						}
					}
				}
				JOINT RightUpArm_virtual
				{
					OFFSET -0.000000 -0.000000 -0.000000
					CHANNELS 3 Zrotation Yrotation Xrotation
					JOINT RightUpArm
					{
						OFFSET -1.248820 -0.000000 -0.000000
						CHANNELS 3 Zrotation Yrotation Xrotation
						JOINT RightForeArm
						{
							OFFSET -2.597580 -0.000000 -0.000000
							CHANNELS 3 Zrotation Yrotation Xrotation
							JOINT RightHand
							{
								OFFSET -2.455420 -0.000000 -0.000000
								CHANNELS 3 Zrotation Yrotation Xrotation
								End Site
								{
									OFFSET 0.000000 0.000000 0.000000
								}
							}
						}
					}
				}
			}
		}
	}
	JOINT LeftUpLeg
	{
		OFFSET 1.271939 0.000000 0.000000
		CHANNELS 3 Zrotation Yrotation Xrotation
		JOINT LeftLowLeg
		{
			OFFSET 0.000000 -4.342910 0.000000
			CHANNELS 3 Zrotation Yrotation Xrotation
			JOINT LeftFoot
			{
				OFFSET 0.000000 -4.487670 0.000000
				CHANNELS 3 Zrotation Yrotation Xrotation
				JOINT LeftToeBase
				{
					OFFSET 0.000000 0.000000 1.515070
					CHANNELS 3 Zrotation Yrotation Xrotation
					End Site
					{
						OFFSET 0.000000 0.000000 0.000000
					}
				}
			}
		}
	}
	JOINT RightUpLeg
	{
		OFFSET -1.271939 0.000000 0.000000
		CHANNELS 3 Zrotation Yrotation Xrotation
		JOINT RightLowLeg
		{
			OFFSET 0.000000 -4.342910 0.000000
			CHANNELS 3 Zrotation Yrotation Xrotation
			JOINT RightFoot
			{
				OFFSET 0.000000 -4.487670 0.000000
				CHANNELS 3 Zrotation Yrotation Xrotation
				JOINT RightToeBase
				{
					OFFSET 0.000000 0.000000 1.515070
					CHANNELS 3 Zrotation Yrotation Xrotation
					End Site
					{
						OFFSET 0.000000 0.000000 0.000000
					}
				}
			}
		}
	}
}
MOTION
Frames: 13
Frame Time: 0.041667
-19.167362 6.062519 34.692277 177.599524 -0.807231 132.408892 2.932188 7.336782 -28.528798 -9.218063 -0.045465 42.767816 0.000000 0.000000 0.000000 23.381600 11.520500 15.211345 -0.886662 -22.496455 -96.230698 -18.357100 -10.339100 -1.091003 -19.134800 -31.020100 29.831800 0.000000 -19.697800 0.000000 19.380400 2.032080 19.875200 29.045200 7.628650 -0.256012 25.656200 32.664299 20.204987 0.000000 19.759001 0.000000 6.404100 -9.738000 19.334600 1.516805 -4.761351 -27.364989 0.000000 0.000000 42.550201 -29.735730 13.363824 29.760136 0.000000 0.000000 -21.064640 -6.547141 9.863373 -30.837886 0.000000 0.000000 48.247601 39.027706 -13.503411 30.020463 0.000000 0.000000 -20.453480 
-19.167021 6.062430 34.691225 177.574993 -0.794153 132.473679 2.961873 7.552141 -28.801794 -9.367019 0.007651 42.943902 0.000000 0.000000 0.000000 23.275509 11.730488 14.975944 -0.843072 -22.335555 -96.188587 -18.352800 -10.316300 -1.095001 -19.295401 -30.866199 29.778299 0.000000 -19.489799 0.000000 19.111500 2.150690 19.472700 29.170500 7.618340 -0.207001 25.675900 32.697899 20.253998 0.000000 19.667200 0.000000 6.485860 -9.993480 18.847000 1.456917 -5.125061 -27.447311 0.000000 0.000000 40.589298 -29.476386 12.973375 29.778207 0.000000 0.000000 -21.081320 -6.797527 10.617662 -30.979665 0.000000 0.000000 46.412701 39.337182 -13.291006 30.049709 0.000000 0.000000 -20.694590 
-19.166467 6.062170 34.691746 177.555022 -0.785436 132.505876 3.001188 7.849804 -29.023160 -9.649753 0.014032 43.112901 0.000000 0.000000 0.000000 23.206717 12.110803 15.012261 -0.675521 -22.142398 -96.216215 -18.253500 -10.307300 -1.069000 -19.471701 -30.673100 29.755899 0.000000 -19.232599 0.000000 18.635500 2.373710 18.038799 29.239500 7.632360 -0.157990 25.878000 32.681499 20.235992 0.000000 19.517200 0.000000 6.295530 -9.777500 20.888300 1.419204 -5.524950 -27.508626 0.000000 0.000000 38.551300 -29.910902 12.695593 29.711647 0.000000 0.000000 -20.076770 -7.052327 11.299140 -31.146705 0.000000 0.000000 44.526901 39.346922 -12.981846 30.119769 0.000000 0.000000 -20.941120 
-19.164678 6.062060 34.694165 177.514509 -0.753718 132.561861 3.012420 8.043550 -29.271365 -9.799578 0.067002 43.269236 0.000000 0.000000 0.000000 23.178960 12.336460 15.124951 -0.669301 -22.038202 -96.144949 -18.188900 -10.302800 -1.058014 -19.677299 -30.445900 29.868601 0.000000 -18.843500 0.000000 18.696501 2.257820 18.645300 29.311001 7.659240 -0.182007 25.926399 32.621300 20.643005 0.000000 19.580200 0.000000 6.490840 -10.053500 19.408199 1.394255 -5.935467 -27.664303 0.000000 0.000000 36.735001 -29.270911 12.246011 29.754749 0.000000 0.000000 -21.603040 -7.328639 12.073136 -31.364254 0.000000 0.000000 42.567200 39.612851 -12.797651 29.939632 0.000000 0.000000 -21.032390 
-19.162833 6.061687 34.696971 177.430305 -0.755641 132.563380 2.964910 8.188641 -29.402866 -9.928638 0.127432 43.294434 0.000000 0.000000 0.000000 23.206004 12.601260 15.447106 -0.666043 -21.942921 -96.070836 -18.240499 -10.271300 -1.006012 -19.766899 -30.223200 30.140200 0.000000 -18.501400 0.000000 18.160299 2.374930 16.620100 29.356300 7.701860 -0.046997 26.007099 32.577499 20.622009 0.000000 19.519699 0.000000 6.659410 -9.925680 19.739201 1.301932 -6.357564 -27.755066 0.000000 0.000000 34.889400 -29.293501 12.074528 29.655878 0.000000 0.000000 -21.523660 -7.659375 12.856789 -31.589635 0.000000 0.000000 40.646198 39.563074 -12.575756 29.639950 0.000000 0.000000 -21.084790 
-19.160540 6.061487 34.701521 177.354936 -0.714010 132.579951 2.942263 8.385757 -29.530111 -10.067067 0.176583 43.288056 0.000000 0.000000 0.000000 23.278371 12.956895 16.022991 -0.510977 -21.878089 -96.192761 -18.293301 -10.286600 -0.944000 -19.837900 -29.956200 30.406300 0.000000 -18.206900 0.000000 17.957500 2.479570 16.706301 29.437700 7.740440 -0.019012 26.127800 32.450600 20.710999 0.000000 19.508699 0.000000 6.688350 -9.933260 20.035299 1.275382 -6.823229 -27.865234 0.000000 0.000000 33.018200 -29.267588 11.984477 29.555709 0.000000 0.000000 -21.128690 -7.974047 13.688081 -31.888183 0.000000 0.000000 38.716499 39.605216 -12.499116 29.248353 0.000000 0.000000 -20.965380 
-19.157998 6.062735 34.705095 177.292035 -0.748909 132.389671 2.895396 8.578843 -29.476906 -10.292626 0.186304 43.269286 0.000000 0.000000 0.000000 23.498393 13.028502 16.458297 -0.512852 -21.793898 -96.124560 -18.216999 -10.217800 -0.993988 -20.079399 -29.715200 30.820000 0.000000 -17.879900 0.000000 17.711500 2.343220 18.106100 29.593599 7.733780 -0.061005 26.288601 32.324699 20.859985 0.000000 19.525499 0.000000 6.892210 -10.056600 20.008900 1.228554 -7.503483 -27.759229 0.000000 0.000000 31.106199 -29.072507 11.824459 29.494931 0.000000 0.000000 -20.756680 -8.325281 14.538185 -32.017953 0.000000 0.000000 36.859402 39.711022 -12.397513 28.855414 0.000000 0.000000 -20.965930 
-19.157658 6.067273 34.709833 177.193915 -0.721703 132.011423 2.930046 8.849314 -29.327656 -10.556219 0.156421 43.353900 0.000000 0.000000 0.000000 23.703829 13.077333 16.939146 -0.508324 -21.759338 -96.054086 -18.202499 -10.171600 -1.010986 -20.178200 -29.392099 31.093000 0.000000 -17.711700 0.000000 17.457500 2.396690 17.957800 29.765301 7.810520 0.023010 26.314899 32.214100 20.786987 0.000000 19.523199 0.000000 7.107980 -10.134500 19.857201 1.245562 -8.409971 -27.417540 0.000000 0.000000 29.160101 -28.842681 11.648424 29.300896 0.000000 0.000000 -20.537770 -8.617668 15.443253 -31.946025 0.000000 0.000000 34.961300 39.665335 -12.265119 28.510927 0.000000 0.000000 -20.782410 
-19.158400 6.061928 34.718511 176.998421 -0.666261 132.325501 2.895358 9.239726 -29.622213 -10.924382 0.160909 43.221812 0.000000 0.000000 0.000000 24.038996 13.042905 17.473269 -0.599060 -21.680082 -96.031382 -18.146601 -10.129300 -1.006012 -20.247601 -29.112200 31.125601 0.000000 -17.561300 0.000000 17.255400 2.428390 18.318001 29.965200 7.834550 0.014008 26.340700 32.104401 21.057007 0.000000 19.603001 0.000000 7.215870 -10.195800 19.634800 1.364850 -9.311156 -27.920723 0.000000 0.000000 27.338400 -28.748842 11.535906 29.043120 0.000000 0.000000 -20.034740 -9.234575 16.383322 -32.792599 0.000000 0.000000 33.176601 39.082683 -12.115052 28.389666 0.000000 0.000000 -20.549640 
-19.160499 6.057482 34.726904 176.903850 -0.653504 132.410556 2.924409 9.650417 -29.746380 -11.387176 0.064457 43.150734 0.000000 0.000000 0.000000 24.385653 12.927017 17.934497 -0.632230 -21.617528 -95.985710 -18.065001 -10.031200 -0.997009 -20.230301 -28.880301 31.377300 0.000000 -17.529699 0.000000 17.096001 2.518330 17.904100 30.218800 7.919150 0.054993 26.366600 32.011902 20.903015 0.000000 19.550900 0.000000 7.471230 -10.317300 19.428801 1.498170 -10.321477 -28.241148 0.000000 0.000000 25.504999 -28.521418 11.491494 28.884820 0.000000 0.000000 -19.587880 -9.704189 17.152417 -33.381014 0.000000 0.000000 31.458799 38.867779 -12.066769 28.190204 0.000000 0.000000 -20.535360 
-19.158097 6.057379 34.733680 176.860623 -0.609582 132.985210 2.860251 9.869293 -30.527221 -11.690848 0.121073 43.214418 0.000000 0.000000 0.000000 24.777945 12.713145 18.370427 -0.752373 -21.557126 -95.892116 -17.983200 -9.939580 -0.994995 -20.195400 -28.689699 31.437300 0.000000 -17.468300 0.000000 16.914499 2.562510 18.009899 30.429600 7.959470 0.153015 26.331800 31.954500 20.944000 0.000000 19.591101 0.000000 7.399810 -10.264300 19.821800 1.680264 -10.885518 -29.003281 0.000000 0.000000 23.595600 -28.709179 11.294562 28.785705 0.000000 0.000000 -19.252690 -10.225056 17.826344 -34.401321 0.000000 0.000000 29.708000 38.632593 -12.138630 27.828758 0.000000 0.000000 -20.436630 
-19.158377 6.053895 34.740052 176.794755 -0.587293 132.946492 2.864150 10.080852 -30.657307 -11.918619 0.113957 43.271606 0.000000 0.000000 0.000000 25.029190 12.469434 18.593278 -0.768094 -21.566227 -95.744138 -17.937599 -9.889310 -1.174011 -20.282600 -28.471201 31.514400 0.000000 -17.370800 0.000000 16.774799 2.588270 17.877300 30.567200 8.039500 0.087006 26.408199 31.807100 20.740997 0.000000 19.591101 0.000000 7.517520 -10.491200 19.089199 1.559497 -11.142036 -29.162083 0.000000 0.000000 21.702400 -29.398116 11.251675 28.698462 0.000000 0.000000 -20.372510 -10.430959 18.175192 -34.814117 0.000000 0.000000 28.087099 38.403322 -12.170447 27.507347 0.000000 0.000000 -20.336490 
-19.160168 6.061495 34.738778 176.714504 -0.615882 131.285465 2.998660 10.259433 -29.412856 -12.049648 -0.000051 43.489899 0.000000 0.000000 0.000000 25.319331 12.080664 18.792111 -0.893576 -21.612741 -95.493779 -17.903700 -9.818640 -1.235992 -20.362000 -28.282000 31.633600 0.000000 -17.307400 0.000000 16.657000 2.711810 17.942900 30.549500 7.995180 -0.037994 26.611900 31.684900 21.052002 0.000000 19.569500 0.000000 7.641740 -10.524400 18.754801 0.730492 -10.777763 -27.478210 0.000000 0.000000 19.792400 -28.798053 10.936907 28.143149 0.000000 0.000000 -19.002670 -10.216104 19.135744 -33.333701 0.000000 0.000000 26.288700 39.382267 -12.654747 26.359974 0.000000 0.000000 -20.165830 
